<svg version="1.1" xmlns="http://www.w3.org/2000/svg" xmlns:xlink="http://www.w3.org/1999/xlink" width="692.58447265625" height="407"><defs/><g><g transform="translate(-278,-134) scale(1,1)"><rect fill="#C0C0C0" stroke="none" x="631" y="151" width="64" height="64" opacity="0.2"/></g><g transform="translate(-278,-134) scale(1,1)"><rect fill="#ffffff" stroke="none" x="624" y="144" width="64" height="64"/></g><g transform="translate(-278,-134) scale(1,1)"><path fill="none" stroke="#000000" d="M 624 144 L 688 144 L 688 208 L 624 208 L 624 144 Z Z" stroke-miterlimit="10"/></g><g transform="translate(-278,-134) scale(1,1)"><path fill="none" stroke="#000000" d="M 624 167 L 688 167" stroke-miterlimit="10"/></g><g transform="translate(-278,-134) scale(1,1)"><path fill="none" stroke="#000000" d="M 634 167 L 634 208" stroke-miterlimit="10"/></g><g transform="translate(-278,-134) scale(1,1)"><path fill="none" stroke="#000000" d="M 677.9599609375 167 L 677.9599609375 208" stroke-miterlimit="10"/></g><g transform="translate(-278,-134) scale(1,1)"><g><path fill="none" stroke="none"/><text fill="#000000" stroke="none" font-family="Arial" font-size="13px" font-style="normal" font-weight="bold" text-decoration="none" x="631.9169921875" y="161.5">Workout</text></g></g><g transform="translate(-278,-134) scale(1,1)"><g><path fill="none" stroke="none"/><text fill="#000000" stroke="none" font-family="Arial" font-size="13px" font-style="normal" font-weight="normal" text-decoration="none" x="629" y="185"></text></g></g><g transform="translate(-278,-134) scale(1,1)"><g><path fill="none" stroke="none"/><text fill="#000000" stroke="none" font-family="Arial" font-size="13px" font-style="normal" font-weight="normal" text-decoration="none" x="639" y="185">_id</text></g></g><g transform="translate(-278,-134) scale(1,1)"><g><path fill="none" stroke="none"/><text fill="#000000" stroke="none" font-family="Arial" font-size="13px" font-style="normal" font-weight="normal" text-decoration="none" x="682.9599609375" y="185"></text></g></g><g transform="translate(-278,-134) scale(1,1)"><g><path fill="none" stroke="none"/><text fill="#000000" stroke="none" font-family="Arial" font-size="13px" font-style="normal" font-weight="normal" text-decoration="none" x="629" y="184.5"></text></g></g><g transform="translate(-278,-134) scale(1,1)"><g><path fill="none" stroke="none"/><text fill="#000000" stroke="none" font-family="Arial" font-size="13px" font-style="normal" font-weight="normal" text-decoration="none" x="629" y="200"></text></g></g><g transform="translate(-278,-134) scale(1,1)"><g><path fill="none" stroke="none"/><text fill="#000000" stroke="none" font-family="Arial" font-size="13px" font-style="normal" font-weight="normal" text-decoration="none" x="639" y="200">name</text></g></g><g transform="translate(-278,-134) scale(1,1)"><g><path fill="none" stroke="none"/><text fill="#000000" stroke="none" font-family="Arial" font-size="13px" font-style="normal" font-weight="normal" text-decoration="none" x="682.9599609375" y="200"></text></g></g><g transform="translate(-278,-134) scale(1,1)"><g><path fill="none" stroke="none"/><text fill="#000000" stroke="none" font-family="Arial" font-size="13px" font-style="normal" font-weight="normal" text-decoration="none" x="629" y="199.5"></text></g></g><g transform="translate(-278,-134) scale(1,1)"><rect fill="#C0C0C0" stroke="none" x="607" y="359" width="88" height="90" opacity="0.2"/></g><g transform="translate(-278,-134) scale(1,1)"><rect fill="#ffffff" stroke="none" x="600" y="352" width="88" height="90"/></g><g transform="translate(-278,-134) scale(1,1)"><path fill="none" stroke="#000000" d="M 600 352 L 688 352 L 688 442 L 600 442 L 600 352 Z Z" stroke-miterlimit="10"/></g><g transform="translate(-278,-134) scale(1,1)"><path fill="none" stroke="#000000" d="M 600 375 L 688 375" stroke-miterlimit="10"/></g><g transform="translate(-278,-134) scale(1,1)"><path fill="none" stroke="#000000" d="M 610 375 L 610 442" stroke-miterlimit="10"/></g><g transform="translate(-278,-134) scale(1,1)"><path fill="none" stroke="#000000" d="M 676.3544921875 375 L 676.3544921875 442" stroke-miterlimit="10"/></g><g transform="translate(-278,-134) scale(1,1)"><g><path fill="none" stroke="none"/><text fill="#000000" stroke="none" font-family="Arial" font-size="13px" font-style="normal" font-weight="bold" text-decoration="none" x="619.075927734375" y="369.5">Program</text></g></g><g transform="translate(-278,-134) scale(1,1)"><g><path fill="none" stroke="none"/><text fill="#000000" stroke="none" font-family="Arial" font-size="13px" font-style="normal" font-weight="normal" text-decoration="none" x="605" y="393"></text></g></g><g transform="translate(-278,-134) scale(1,1)"><g><path fill="none" stroke="none"/><text fill="#000000" stroke="none" font-family="Arial" font-size="13px" font-style="normal" font-weight="normal" text-decoration="none" x="615" y="393">_id</text></g></g><g transform="translate(-278,-134) scale(1,1)"><g><path fill="none" stroke="none"/><text fill="#000000" stroke="none" font-family="Arial" font-size="13px" font-style="normal" font-weight="normal" text-decoration="none" x="681.3544921875" y="393"></text></g></g><g transform="translate(-278,-134) scale(1,1)"><g><path fill="none" stroke="none"/><text fill="#000000" stroke="none" font-family="Arial" font-size="13px" font-style="normal" font-weight="normal" text-decoration="none" x="605" y="392.5"></text></g></g><g transform="translate(-278,-134) scale(1,1)"><g><path fill="none" stroke="none"/><text fill="#000000" stroke="none" font-family="Arial" font-size="13px" font-style="normal" font-weight="normal" text-decoration="none" x="605" y="408"></text></g></g><g transform="translate(-278,-134) scale(1,1)"><g><path fill="none" stroke="none"/><text fill="#000000" stroke="none" font-family="Arial" font-size="13px" font-style="normal" font-weight="normal" text-decoration="none" x="615" y="408">name</text></g></g><g transform="translate(-278,-134) scale(1,1)"><g><path fill="none" stroke="none"/><text fill="#000000" stroke="none" font-family="Arial" font-size="13px" font-style="normal" font-weight="normal" text-decoration="none" x="681.3544921875" y="408"></text></g></g><g transform="translate(-278,-134) scale(1,1)"><g><path fill="none" stroke="none"/><text fill="#000000" stroke="none" font-family="Arial" font-size="13px" font-style="normal" font-weight="normal" text-decoration="none" x="605" y="407.5"></text></g></g><g transform="translate(-278,-134) scale(1,1)"><g><path fill="none" stroke="none"/><text fill="#000000" stroke="none" font-family="Arial" font-size="13px" font-style="normal" font-weight="normal" text-decoration="none" x="605" y="423"></text></g></g><g transform="translate(-278,-134) scale(1,1)"><g><path fill="none" stroke="none"/><text fill="#000000" stroke="none" font-family="Arial" font-size="13px" font-style="normal" font-weight="normal" text-decoration="none" x="615" y="423">objective</text></g></g><g transform="translate(-278,-134) scale(1,1)"><g><path fill="none" stroke="none"/><text fill="#000000" stroke="none" font-family="Arial" font-size="13px" font-style="normal" font-weight="normal" text-decoration="none" x="681.3544921875" y="423"></text></g></g><g transform="translate(-278,-134) scale(1,1)"><g><path fill="none" stroke="none"/><text fill="#000000" stroke="none" font-family="Arial" font-size="13px" font-style="normal" font-weight="normal" text-decoration="none" x="605" y="422.5"></text></g></g><g transform="translate(-278,-134) scale(1,1)"><g><path fill="none" stroke="none"/><text fill="#000000" stroke="none" font-family="Arial" font-size="13px" font-style="normal" font-weight="normal" text-decoration="none" x="605" y="438"></text></g></g><g transform="translate(-278,-134) scale(1,1)"><g><path fill="none" stroke="none"/><text fill="#000000" stroke="none" font-family="Arial" font-size="13px" font-style="normal" font-weight="normal" text-decoration="none" x="615" y="438">level</text></g></g><g transform="translate(-278,-134) scale(1,1)"><g><path fill="none" stroke="none"/><text fill="#000000" stroke="none" font-family="Arial" font-size="13px" font-style="normal" font-weight="normal" text-decoration="none" x="681.3544921875" y="438"></text></g></g><g transform="translate(-278,-134) scale(1,1)"><g><path fill="none" stroke="none"/><text fill="#000000" stroke="none" font-family="Arial" font-size="13px" font-style="normal" font-weight="normal" text-decoration="none" x="605" y="437.5"></text></g></g><g transform="translate(-278,-134) scale(1,1)"><rect fill="#C0C0C0" stroke="none" x="295" y="351" width="101.24267578125" height="105" opacity="0.2"/></g><g transform="translate(-278,-134) scale(1,1)"><rect fill="#ffffff" stroke="none" x="288" y="344" width="101.24267578125" height="105"/></g><g transform="translate(-278,-134) scale(1,1)"><path fill="none" stroke="#000000" d="M 288 344 L 389.24267578125 344 L 389.24267578125 449 L 288 449 L 288 344 Z Z" stroke-miterlimit="10"/></g><g transform="translate(-278,-134) scale(1,1)"><path fill="none" stroke="#000000" d="M 288 367 L 389.24267578125 367" stroke-miterlimit="10"/></g><g transform="translate(-278,-134) scale(1,1)"><path fill="none" stroke="#000000" d="M 298 367 L 298 449" stroke-miterlimit="10"/></g><g transform="translate(-278,-134) scale(1,1)"><path fill="none" stroke="#000000" d="M 368.68359375 367 L 368.68359375 449" stroke-miterlimit="10"/></g><g transform="translate(-278,-134) scale(1,1)"><g><path fill="none" stroke="none"/><text fill="#000000" stroke="none" font-family="Arial" font-size="13px" font-style="normal" font-weight="bold" text-decoration="none" x="324.897705078125" y="361.5">User</text></g></g><g transform="translate(-278,-134) scale(1,1)"><g><path fill="none" stroke="none"/><text fill="#000000" stroke="none" font-family="Arial" font-size="13px" font-style="normal" font-weight="normal" text-decoration="none" x="293" y="385"></text></g></g><g transform="translate(-278,-134) scale(1,1)"><g><path fill="none" stroke="none"/><text fill="#000000" stroke="none" font-family="Arial" font-size="13px" font-style="normal" font-weight="normal" text-decoration="none" x="303" y="385">_id</text></g></g><g transform="translate(-278,-134) scale(1,1)"><g><path fill="none" stroke="none"/><text fill="#000000" stroke="none" font-family="Arial" font-size="13px" font-style="normal" font-weight="normal" text-decoration="none" x="373.68359375" y="385"></text></g></g><g transform="translate(-278,-134) scale(1,1)"><g><path fill="none" stroke="none"/><text fill="#000000" stroke="none" font-family="Arial" font-size="13px" font-style="normal" font-weight="normal" text-decoration="none" x="293" y="384.5"></text></g></g><g transform="translate(-278,-134) scale(1,1)"><g><path fill="none" stroke="none"/><text fill="#000000" stroke="none" font-family="Arial" font-size="13px" font-style="normal" font-weight="normal" text-decoration="none" x="293" y="400"></text></g></g><g transform="translate(-278,-134) scale(1,1)"><g><path fill="none" stroke="none"/><text fill="#000000" stroke="none" font-family="Arial" font-size="13px" font-style="normal" font-weight="normal" text-decoration="none" x="303" y="400">pseudo</text></g></g><g transform="translate(-278,-134) scale(1,1)"><g><path fill="none" stroke="none"/><text fill="#000000" stroke="none" font-family="Arial" font-size="13px" font-style="normal" font-weight="normal" text-decoration="none" x="373.68359375" y="400"></text></g></g><g transform="translate(-278,-134) scale(1,1)"><g><path fill="none" stroke="none"/><text fill="#000000" stroke="none" font-family="Arial" font-size="13px" font-style="normal" font-weight="normal" text-decoration="none" x="293" y="399.5"></text></g></g><g transform="translate(-278,-134) scale(1,1)"><g><path fill="none" stroke="none"/><text fill="#000000" stroke="none" font-family="Arial" font-size="13px" font-style="normal" font-weight="normal" text-decoration="none" x="293" y="415"></text></g></g><g transform="translate(-278,-134) scale(1,1)"><g><path fill="none" stroke="none"/><text fill="#000000" stroke="none" font-family="Arial" font-size="13px" font-style="normal" font-weight="normal" text-decoration="none" x="303" y="415">email</text></g></g><g transform="translate(-278,-134) scale(1,1)"><g><path fill="none" stroke="none"/><text fill="#000000" stroke="none" font-family="Arial" font-size="13px" font-style="normal" font-weight="normal" text-decoration="none" x="373.68359375" y="415"></text></g></g><g transform="translate(-278,-134) scale(1,1)"><g><path fill="none" stroke="none"/><text fill="#000000" stroke="none" font-family="Arial" font-size="13px" font-style="normal" font-weight="normal" text-decoration="none" x="293" y="414.5"></text></g></g><g transform="translate(-278,-134) scale(1,1)"><g><path fill="none" stroke="none"/><text fill="#000000" stroke="none" font-family="Arial" font-size="13px" font-style="normal" font-weight="normal" text-decoration="none" x="293" y="430"></text></g></g><g transform="translate(-278,-134) scale(1,1)"><g><path fill="none" stroke="none"/><text fill="#000000" stroke="none" font-family="Arial" font-size="13px" font-style="normal" font-weight="normal" text-decoration="none" x="303" y="430">password</text></g></g><g transform="translate(-278,-134) scale(1,1)"><g><path fill="none" stroke="none"/><text fill="#000000" stroke="none" font-family="Arial" font-size="13px" font-style="normal" font-weight="normal" text-decoration="none" x="373.68359375" y="430"></text></g></g><g transform="translate(-278,-134) scale(1,1)"><g><path fill="none" stroke="none"/><text fill="#000000" stroke="none" font-family="Arial" font-size="13px" font-style="normal" font-weight="normal" text-decoration="none" x="293" y="429.5"></text></g></g><g transform="translate(-278,-134) scale(1,1)"><path fill="none" stroke="#000000" d="M 389 376 L 600 376" stroke-miterlimit="10"/></g><g transform="translate(-278,-134) scale(1,1)"><path fill="none" stroke="#000000" d="M 586 376 L 600 383" stroke-miterlimit="10"/></g><g transform="translate(-278,-134) scale(1,1)"><path fill="none" stroke="#000000" d="M 586 376 L 600 369" stroke-miterlimit="10"/></g><g transform="translate(-278,-134) scale(1,1)"><path fill="#FFFFFF" stroke="none" d="M 571 376 C 571 372.1340064 574.1340064 369 578 369 C 581.8659936 369 585 372.1340064 585 376 C 585 379.8659936 581.8659936 383 578 383 C 574.1340064 383 571 379.8659936 571 376 Z"/></g><g transform="translate(-278,-134) scale(1,1)"><path fill="none" stroke="#000000" d="M 571 376 C 571 372.1340064 574.1340064 369 578 369 C 581.8659936 369 585 372.1340064 585 376 C 585 379.8659936 581.8659936 383 578 383 C 574.1340064 383 571 379.8659936 571 376 Z" stroke-miterlimit="10"/></g><g transform="translate(-278,-134) scale(1,1)"><path fill="none" stroke="#000000" d="M 396 369 L 396 383" stroke-miterlimit="10"/></g><g transform="translate(-278,-134) scale(1,1)"><path fill="none" stroke="#000000" d="M 403 369 L 403 383" stroke-miterlimit="10"/></g><g transform="translate(-278,-134) scale(1,1)"><g><path fill="none" stroke="none"/><text fill="#000000" stroke="none" font-family="Arial" font-size="13px" font-style="normal" font-weight="normal" text-decoration="none" x="462.5" y="367.5">programs[]</text></g></g><g transform="translate(-278,-134) scale(1,1)"><g><path fill="none" stroke="none"/><text fill="#000000" stroke="none" font-family="Arial" font-size="13px" font-style="normal" font-weight="normal" text-decoration="none" x="413.5" y="367.5"></text></g></g><g transform="translate(-278,-134) scale(1,1)"><g><path fill="none" stroke="none"/><text fill="#000000" stroke="none" font-family="Arial" font-size="13px" font-style="normal" font-weight="normal" text-decoration="none" x="573.5" y="367.5"></text></g></g><g transform="translate(-278,-134) scale(1,1)"><path fill="none" stroke="#000000" d="M 645 352 L 645 208" stroke-miterlimit="10"/></g><g transform="translate(-278,-134) scale(1,1)"><path fill="none" stroke="#000000" d="M 645 222 L 652 208" stroke-miterlimit="10"/></g><g transform="translate(-278,-134) scale(1,1)"><path fill="none" stroke="#000000" d="M 645 222 L 638 208" stroke-miterlimit="10"/></g><g transform="translate(-278,-134) scale(1,1)"><path fill="#FFFFFF" stroke="none" d="M 638 230 C 638 226.1340064 641.1340064 223 645 223 C 648.8659936 223 652 226.1340064 652 230 C 652 233.8659936 648.8659936 237 645 237 C 641.1340064 237 638 233.8659936 638 230 Z"/></g><g transform="translate(-278,-134) scale(1,1)"><path fill="none" stroke="#000000" d="M 638 230 C 638 226.1340064 641.1340064 223 645 223 C 648.8659936 223 652 226.1340064 652 230 C 652 233.8659936 648.8659936 237 645 237 C 641.1340064 237 638 233.8659936 638 230 Z" stroke-miterlimit="10"/></g><g transform="translate(-278,-134) scale(1,1)"><path fill="none" stroke="#000000" d="M 638 345 L 652 345" stroke-miterlimit="10"/></g><g transform="translate(-278,-134) scale(1,1)"><path fill="none" stroke="#000000" d="M 638 338 L 652 338" stroke-miterlimit="10"/></g><g transform="translate(-278,-134) scale(1,1)"><g><path fill="none" stroke="none"/><text fill="#000000" stroke="none" font-family="Arial" font-size="13px" font-style="normal" font-weight="normal" text-decoration="none" x="652.5" y="284.5">seances[]</text></g></g><g transform="translate(-278,-134) scale(1,1)"><g><path fill="none" stroke="none"/><text fill="#000000" stroke="none" font-family="Arial" font-size="13px" font-style="normal" font-weight="normal" text-decoration="none" x="629.5" y="332.5"></text></g></g><g transform="translate(-278,-134) scale(1,1)"><g><path fill="none" stroke="none"/><text fill="#000000" stroke="none" font-family="Arial" font-size="13px" font-style="normal" font-weight="normal" text-decoration="none" x="629.5" y="239.5"></text></g></g><g transform="translate(-278,-134) scale(1,1)"><path fill="none" stroke="#000000" d="M 336 344 L 336 184 M 336 184 A 8 8 0 0 1 344 176 L 624 176" stroke-miterlimit="10"/></g><g transform="translate(-278,-134) scale(1,1)"><path fill="none" stroke="#000000" d="M 617 183 L 617 169" stroke-miterlimit="10"/></g><g transform="translate(-278,-134) scale(1,1)"><path fill="none" stroke="#000000" d="M 610 183 L 610 169" stroke-miterlimit="10"/></g><g transform="translate(-278,-134) scale(1,1)"><path fill="none" stroke="#000000" d="M 329 337 L 343 337" stroke-miterlimit="10"/></g><g transform="translate(-278,-134) scale(1,1)"><path fill="none" stroke="#000000" d="M 329 330 L 343 330" stroke-miterlimit="10"/></g><g transform="translate(-278,-134) scale(1,1)"><g><path fill="none" stroke="none"/><text fill="#000000" stroke="none" font-family="Arial" font-size="13px" font-style="normal" font-weight="normal" text-decoration="none" x="315.5" y="167.5">author </text></g></g><g transform="translate(-278,-134) scale(1,1)"><g><path fill="none" stroke="none"/><text fill="#000000" stroke="none" font-family="Arial" font-size="13px" font-style="normal" font-weight="normal" text-decoration="none" x="320.5" y="324.5"></text></g></g><g transform="translate(-278,-134) scale(1,1)"><g><path fill="none" stroke="none"/><text fill="#000000" stroke="none" font-family="Arial" font-size="13px" font-style="normal" font-weight="normal" text-decoration="none" x="597.5" y="167.5"></text></g></g><g transform="translate(-278,-134) scale(1,1)"><g><path fill="none" stroke="none"/><text fill="#000000" stroke="none" font-family="Arial" font-size="13px" font-style="normal" font-weight="normal" text-decoration="none" x="661" y="234">few</text></g></g><g transform="translate(-278,-134) scale(1,1)"><g><path fill="none" stroke="none"/><text fill="#000000" stroke="none" font-family="Arial" font-size="13px" font-style="normal" font-weight="normal" text-decoration="none" x="549" y="410">zillion</text></g></g><g transform="translate(-278,-134) scale(1,1)"><rect fill="#C0C0C0" stroke="none" x="823" y="311" width="144.58447265625" height="60" opacity="0.2"/></g><g transform="translate(-278,-134) scale(1,1)"><rect fill="#ffffff" stroke="none" x="816" y="304" width="144.58447265625" height="60"/></g><g transform="translate(-278,-134) scale(1,1)"><path fill="none" stroke="#000000" d="M 816 304 L 960.58447265625 304 L 960.58447265625 364 L 816 364 L 816 304 Z Z" stroke-miterlimit="10"/></g><g transform="translate(-278,-134) scale(1,1)"><path fill="none" stroke="#000000" d="M 816 327 L 960.58447265625 327" stroke-miterlimit="10"/></g><g transform="translate(-278,-134) scale(1,1)"><path fill="none" stroke="#000000" d="M 826 327 L 826 364" stroke-miterlimit="10"/></g><g transform="translate(-278,-134) scale(1,1)"><path fill="none" stroke="#000000" d="M 951.58447265625 327 L 951.58447265625 364" stroke-miterlimit="10"/></g><g transform="translate(-278,-134) scale(1,1)"><g><path fill="none" stroke="none"/><text fill="#000000" stroke="none" font-family="Arial" font-size="13px" font-style="normal" font-weight="bold" text-decoration="none" x="863.3681640625" y="321.5">Exercice</text></g></g><g transform="translate(-278,-134) scale(1,1)"><g><path fill="none" stroke="none"/><text fill="#000000" stroke="none" font-family="Arial" font-size="13px" font-style="normal" font-weight="normal" text-decoration="none" x="821" y="345"></text></g></g><g transform="translate(-278,-134) scale(1,1)"><g><path fill="none" stroke="none"/><text fill="#000000" stroke="none" font-family="Arial" font-size="13px" font-style="normal" font-weight="normal" text-decoration="none" x="831" y="345">name</text></g></g><g transform="translate(-278,-134) scale(1,1)"><g><path fill="none" stroke="none"/><text fill="#000000" stroke="none" font-family="Arial" font-size="13px" font-style="normal" font-weight="normal" text-decoration="none" x="956.58447265625" y="345"></text></g></g><g transform="translate(-278,-134) scale(1,1)"><g><path fill="none" stroke="none"/><text fill="#000000" stroke="none" font-family="Arial" font-size="13px" font-style="normal" font-weight="normal" text-decoration="none" x="821" y="344.5"></text></g></g><g transform="translate(-278,-134) scale(1,1)"><g><path fill="none" stroke="none"/><text fill="#000000" stroke="none" font-family="Arial" font-size="13px" font-style="normal" font-weight="normal" text-decoration="none" x="821" y="360"></text></g></g><g transform="translate(-278,-134) scale(1,1)"><g><path fill="none" stroke="none"/><text fill="#000000" stroke="none" font-family="Arial" font-size="13px" font-style="normal" font-weight="normal" text-decoration="none" x="831" y="360">musclesEngaged[]</text></g></g><g transform="translate(-278,-134) scale(1,1)"><g><path fill="none" stroke="none"/><text fill="#000000" stroke="none" font-family="Arial" font-size="13px" font-style="normal" font-weight="normal" text-decoration="none" x="956.58447265625" y="360"></text></g></g><g transform="translate(-278,-134) scale(1,1)"><g><path fill="none" stroke="none"/><text fill="#000000" stroke="none" font-family="Arial" font-size="13px" font-style="normal" font-weight="normal" text-decoration="none" x="821" y="359.5"></text></g></g><g transform="translate(-278,-134) scale(1,1)"><path fill="none" stroke="#000000" d="M 688 176 L 880 176 M 880 176 A 8 8 0 0 1 888 184 L 888 304" stroke-miterlimit="10"/></g><g transform="translate(-278,-134) scale(1,1)"><path fill="none" stroke="#000000" d="M 888 290 L 881 304" stroke-miterlimit="10"/></g><g transform="translate(-278,-134) scale(1,1)"><path fill="none" stroke="#000000" d="M 888 290 L 895 304" stroke-miterlimit="10"/></g><g transform="translate(-278,-134) scale(1,1)"><path fill="#FFFFFF" stroke="none" d="M 881 282 C 881 278.1340064 884.1340064 275 888 275 C 891.8659936 275 895 278.1340064 895 282 C 895 285.8659936 891.8659936 289 888 289 C 884.1340064 289 881 285.8659936 881 282 Z"/></g><g transform="translate(-278,-134) scale(1,1)"><path fill="none" stroke="#000000" d="M 881 282 C 881 278.1340064 884.1340064 275 888 275 C 891.8659936 275 895 278.1340064 895 282 C 895 285.8659936 891.8659936 289 888 289 C 884.1340064 289 881 285.8659936 881 282 Z" stroke-miterlimit="10"/></g><g transform="translate(-278,-134) scale(1,1)"><path fill="none" stroke="#000000" d="M 695 169 L 695 183" stroke-miterlimit="10"/></g><g transform="translate(-278,-134) scale(1,1)"><path fill="none" stroke="#000000" d="M 702 169 L 702 183" stroke-miterlimit="10"/></g><g transform="translate(-278,-134) scale(1,1)"><g><path fill="none" stroke="none"/><text fill="#000000" stroke="none" font-family="Arial" font-size="13px" font-style="normal" font-weight="normal" text-decoration="none" x="830.5" y="163.5">exercices[]</text></g></g><g transform="translate(-278,-134) scale(1,1)"><g><path fill="none" stroke="none"/><text fill="#000000" stroke="none" font-family="Arial" font-size="13px" font-style="normal" font-weight="normal" text-decoration="none" x="712.5" y="167.5"></text></g></g><g transform="translate(-278,-134) scale(1,1)"><g><path fill="none" stroke="none"/><text fill="#000000" stroke="none" font-family="Arial" font-size="13px" font-style="normal" font-weight="normal" text-decoration="none" x="902.5" y="284.5">few</text></g></g><g transform="translate(-278,-134) scale(1,1)"><rect fill="#C0C0C0" stroke="none" x="847" y="463" width="96.9072265625" height="75" opacity="0.2"/></g><g transform="translate(-278,-134) scale(1,1)"><rect fill="#ffffff" stroke="none" x="840" y="456" width="96.9072265625" height="75"/></g><g transform="translate(-278,-134) scale(1,1)"><path fill="none" stroke="#000000" d="M 840 456 L 936.9072265625 456 L 936.9072265625 531 L 840 531 L 840 456 Z Z" stroke-miterlimit="10"/></g><g transform="translate(-278,-134) scale(1,1)"><path fill="none" stroke="#000000" d="M 840 479 L 936.9072265625 479" stroke-miterlimit="10"/></g><g transform="translate(-278,-134) scale(1,1)"><path fill="none" stroke="#000000" d="M 850 479 L 850 531" stroke-miterlimit="10"/></g><g transform="translate(-278,-134) scale(1,1)"><path fill="none" stroke="#000000" d="M 927.9072265625 479 L 927.9072265625 531" stroke-miterlimit="10"/></g><g transform="translate(-278,-134) scale(1,1)"><g><path fill="none" stroke="none"/><text fill="#000000" stroke="none" font-family="Arial" font-size="13px" font-style="normal" font-weight="bold" text-decoration="none" x="878.697265625" y="473.5">Set</text></g></g><g transform="translate(-278,-134) scale(1,1)"><g><path fill="none" stroke="none"/><text fill="#000000" stroke="none" font-family="Arial" font-size="13px" font-style="normal" font-weight="normal" text-decoration="none" x="845" y="497"></text></g></g><g transform="translate(-278,-134) scale(1,1)"><g><path fill="none" stroke="none"/><text fill="#000000" stroke="none" font-family="Arial" font-size="13px" font-style="normal" font-weight="normal" text-decoration="none" x="855" y="497">setNumber</text></g></g><g transform="translate(-278,-134) scale(1,1)"><g><path fill="none" stroke="none"/><text fill="#000000" stroke="none" font-family="Arial" font-size="13px" font-style="normal" font-weight="normal" text-decoration="none" x="932.9072265625" y="497"></text></g></g><g transform="translate(-278,-134) scale(1,1)"><g><path fill="none" stroke="none"/><text fill="#000000" stroke="none" font-family="Arial" font-size="13px" font-style="normal" font-weight="normal" text-decoration="none" x="845" y="496.5"></text></g></g><g transform="translate(-278,-134) scale(1,1)"><g><path fill="none" stroke="none"/><text fill="#000000" stroke="none" font-family="Arial" font-size="13px" font-style="normal" font-weight="normal" text-decoration="none" x="845" y="512"></text></g></g><g transform="translate(-278,-134) scale(1,1)"><g><path fill="none" stroke="none"/><text fill="#000000" stroke="none" font-family="Arial" font-size="13px" font-style="normal" font-weight="normal" text-decoration="none" x="855" y="512">weight</text></g></g><g transform="translate(-278,-134) scale(1,1)"><g><path fill="none" stroke="none"/><text fill="#000000" stroke="none" font-family="Arial" font-size="13px" font-style="normal" font-weight="normal" text-decoration="none" x="932.9072265625" y="512"></text></g></g><g transform="translate(-278,-134) scale(1,1)"><g><path fill="none" stroke="none"/><text fill="#000000" stroke="none" font-family="Arial" font-size="13px" font-style="normal" font-weight="normal" text-decoration="none" x="845" y="511.5"></text></g></g><g transform="translate(-278,-134) scale(1,1)"><g><path fill="none" stroke="none"/><text fill="#000000" stroke="none" font-family="Arial" font-size="13px" font-style="normal" font-weight="normal" text-decoration="none" x="845" y="527"></text></g></g><g transform="translate(-278,-134) scale(1,1)"><g><path fill="none" stroke="none"/><text fill="#000000" stroke="none" font-family="Arial" font-size="13px" font-style="normal" font-weight="normal" text-decoration="none" x="855" y="527">reps</text></g></g><g transform="translate(-278,-134) scale(1,1)"><g><path fill="none" stroke="none"/><text fill="#000000" stroke="none" font-family="Arial" font-size="13px" font-style="normal" font-weight="normal" text-decoration="none" x="932.9072265625" y="527"></text></g></g><g transform="translate(-278,-134) scale(1,1)"><g><path fill="none" stroke="none"/><text fill="#000000" stroke="none" font-family="Arial" font-size="13px" font-style="normal" font-weight="normal" text-decoration="none" x="845" y="526.5"></text></g></g><g transform="translate(-278,-134) scale(1,1)"><path fill="none" stroke="#000000" d="M 888 364 L 888 456" stroke-miterlimit="10"/></g><g transform="translate(-278,-134) scale(1,1)"><path fill="none" stroke="#000000" d="M 888 442 L 881 456" stroke-miterlimit="10"/></g><g transform="translate(-278,-134) scale(1,1)"><path fill="none" stroke="#000000" d="M 888 442 L 895 456" stroke-miterlimit="10"/></g><g transform="translate(-278,-134) scale(1,1)"><path fill="#FFFFFF" stroke="none" d="M 881 434 C 881 430.1340064 884.1340064 427 888 427 C 891.8659936 427 895 430.1340064 895 434 C 895 437.8659936 891.8659936 441 888 441 C 884.1340064 441 881 437.8659936 881 434 Z"/></g><g transform="translate(-278,-134) scale(1,1)"><path fill="none" stroke="#000000" d="M 881 434 C 881 430.1340064 884.1340064 427 888 427 C 891.8659936 427 895 430.1340064 895 434 C 895 437.8659936 891.8659936 441 888 441 C 884.1340064 441 881 437.8659936 881 434 Z" stroke-miterlimit="10"/></g><g transform="translate(-278,-134) scale(1,1)"><path fill="none" stroke="#000000" d="M 895 371 L 881 371" stroke-miterlimit="10"/></g><g transform="translate(-278,-134) scale(1,1)"><path fill="none" stroke="#000000" d="M 895 378 L 881 378" stroke-miterlimit="10"/></g><g transform="translate(-278,-134) scale(1,1)"><g><path fill="none" stroke="none"/><text fill="#000000" stroke="none" font-family="Arial" font-size="13px" font-style="normal" font-weight="normal" text-decoration="none" x="895.5" y="404.5">sets[]</text></g></g><g transform="translate(-278,-134) scale(1,1)"><g><path fill="none" stroke="none"/><text fill="#000000" stroke="none" font-family="Arial" font-size="13px" font-style="normal" font-weight="normal" text-decoration="none" x="902.5" y="395.5"></text></g></g><g transform="translate(-278,-134) scale(1,1)"><g><path fill="none" stroke="none"/><text fill="#000000" stroke="none" font-family="Arial" font-size="13px" font-style="normal" font-weight="normal" text-decoration="none" x="904.385009765625" y="444.5">few</text></g></g></g></svg>