<svg version="1.1" xmlns="http://www.w3.org/2000/svg" xmlns:xlink="http://www.w3.org/1999/xlink" width="549.787109375" height="349"><defs/><g><g transform="translate(-238,-110) scale(1,1)"><rect fill="#C0C0C0" stroke="none" x="599" y="127" width="185.787109375" height="105" opacity="0.2"/></g><g transform="translate(-238,-110) scale(1,1)"><rect fill="#ffffff" stroke="none" x="592" y="120" width="185.787109375" height="105"/></g><g transform="translate(-238,-110) scale(1,1)"><path fill="none" stroke="#000000" d="M 592 120 L 777.787109375 120 L 777.787109375 225 L 592 225 L 592 120 Z Z" stroke-miterlimit="10"/></g><g transform="translate(-238,-110) scale(1,1)"><path fill="none" stroke="#000000" d="M 592 143 L 777.787109375 143" stroke-miterlimit="10"/></g><g transform="translate(-238,-110) scale(1,1)"><path fill="none" stroke="#000000" d="M 602 143 L 602 225" stroke-miterlimit="10"/></g><g transform="translate(-238,-110) scale(1,1)"><path fill="none" stroke="#000000" d="M 768.787109375 143 L 768.787109375 225" stroke-miterlimit="10"/></g><g transform="translate(-238,-110) scale(1,1)"><g><path fill="none" stroke="none"/><text fill="#000000" stroke="none" font-family="Arial" font-size="13px" font-style="normal" font-weight="bold" text-decoration="none" x="660.810546875" y="137.5">Workout</text></g></g><g transform="translate(-238,-110) scale(1,1)"><g><path fill="none" stroke="none"/><text fill="#000000" stroke="none" font-family="Arial" font-size="13px" font-style="normal" font-weight="normal" text-decoration="none" x="597" y="161"></text></g></g><g transform="translate(-238,-110) scale(1,1)"><g><path fill="none" stroke="none"/><text fill="#000000" stroke="none" font-family="Arial" font-size="13px" font-style="normal" font-weight="normal" text-decoration="none" x="607" y="161">_id</text></g></g><g transform="translate(-238,-110) scale(1,1)"><g><path fill="none" stroke="none"/><text fill="#000000" stroke="none" font-family="Arial" font-size="13px" font-style="normal" font-weight="normal" text-decoration="none" x="773.787109375" y="161"></text></g></g><g transform="translate(-238,-110) scale(1,1)"><g><path fill="none" stroke="none"/><text fill="#000000" stroke="none" font-family="Arial" font-size="13px" font-style="normal" font-weight="normal" text-decoration="none" x="597" y="160.5"></text></g></g><g transform="translate(-238,-110) scale(1,1)"><g><path fill="none" stroke="none"/><text fill="#000000" stroke="none" font-family="Arial" font-size="13px" font-style="normal" font-weight="normal" text-decoration="none" x="597" y="176"></text></g></g><g transform="translate(-238,-110) scale(1,1)"><g><path fill="none" stroke="none"/><text fill="#000000" stroke="none" font-family="Arial" font-size="13px" font-style="normal" font-weight="normal" text-decoration="none" x="607" y="176">name</text></g></g><g transform="translate(-238,-110) scale(1,1)"><g><path fill="none" stroke="none"/><text fill="#000000" stroke="none" font-family="Arial" font-size="13px" font-style="normal" font-weight="normal" text-decoration="none" x="773.787109375" y="176"></text></g></g><g transform="translate(-238,-110) scale(1,1)"><g><path fill="none" stroke="none"/><text fill="#000000" stroke="none" font-family="Arial" font-size="13px" font-style="normal" font-weight="normal" text-decoration="none" x="597" y="175.5"></text></g></g><g transform="translate(-238,-110) scale(1,1)"><g><path fill="none" stroke="none"/><text fill="#000000" stroke="none" font-family="Arial" font-size="13px" font-style="normal" font-weight="normal" text-decoration="none" x="597" y="191"></text></g></g><g transform="translate(-238,-110) scale(1,1)"><g><path fill="none" stroke="none"/><text fill="#000000" stroke="none" font-family="Arial" font-size="13px" font-style="normal" font-weight="normal" text-decoration="none" x="607" y="191">type</text></g></g><g transform="translate(-238,-110) scale(1,1)"><g><path fill="none" stroke="none"/><text fill="#000000" stroke="none" font-family="Arial" font-size="13px" font-style="normal" font-weight="normal" text-decoration="none" x="773.787109375" y="191"></text></g></g><g transform="translate(-238,-110) scale(1,1)"><g><path fill="none" stroke="none"/><text fill="#000000" stroke="none" font-family="Arial" font-size="13px" font-style="normal" font-weight="normal" text-decoration="none" x="597" y="190.5"></text></g></g><g transform="translate(-238,-110) scale(1,1)"><g><path fill="none" stroke="none"/><text fill="#000000" stroke="none" font-family="Arial" font-size="13px" font-style="normal" font-weight="normal" text-decoration="none" x="597" y="206"></text></g></g><g transform="translate(-238,-110) scale(1,1)"><g><path fill="none" stroke="none"/><text fill="#000000" stroke="none" font-family="Arial" font-size="13px" font-style="normal" font-weight="normal" text-decoration="none" x="607" y="206">weekDay</text></g></g><g transform="translate(-238,-110) scale(1,1)"><g><path fill="none" stroke="none"/><text fill="#000000" stroke="none" font-family="Arial" font-size="13px" font-style="normal" font-weight="normal" text-decoration="none" x="773.787109375" y="206"></text></g></g><g transform="translate(-238,-110) scale(1,1)"><g><path fill="none" stroke="none"/><text fill="#000000" stroke="none" font-family="Arial" font-size="13px" font-style="normal" font-weight="normal" text-decoration="none" x="597" y="205.5"></text></g></g><g transform="translate(-238,-110) scale(1,1)"><g><path fill="none" stroke="none"/><text fill="#000000" stroke="none" font-family="Arial" font-size="13px" font-style="normal" font-weight="normal" text-decoration="none" x="597" y="221"></text></g></g><g transform="translate(-238,-110) scale(1,1)"><g><path fill="none" stroke="none"/><text fill="#000000" stroke="none" font-family="Arial" font-size="13px" font-style="normal" font-weight="normal" text-decoration="none" x="607" y="221">exercices {Incorporation}</text></g></g><g transform="translate(-238,-110) scale(1,1)"><g><path fill="none" stroke="none"/><text fill="#000000" stroke="none" font-family="Arial" font-size="13px" font-style="normal" font-weight="normal" text-decoration="none" x="773.787109375" y="221"></text></g></g><g transform="translate(-238,-110) scale(1,1)"><g><path fill="none" stroke="none"/><text fill="#000000" stroke="none" font-family="Arial" font-size="13px" font-style="normal" font-weight="normal" text-decoration="none" x="597" y="220.5"></text></g></g><g transform="translate(-238,-110) scale(1,1)"><rect fill="#C0C0C0" stroke="none" x="583" y="367" width="88" height="75" opacity="0.2"/></g><g transform="translate(-238,-110) scale(1,1)"><rect fill="#ffffff" stroke="none" x="576" y="360" width="88" height="75"/></g><g transform="translate(-238,-110) scale(1,1)"><path fill="none" stroke="#000000" d="M 576 360 L 664 360 L 664 435 L 576 435 L 576 360 Z Z" stroke-miterlimit="10"/></g><g transform="translate(-238,-110) scale(1,1)"><path fill="none" stroke="#000000" d="M 576 383 L 664 383" stroke-miterlimit="10"/></g><g transform="translate(-238,-110) scale(1,1)"><path fill="none" stroke="#000000" d="M 586 383 L 586 435" stroke-miterlimit="10"/></g><g transform="translate(-238,-110) scale(1,1)"><path fill="none" stroke="#000000" d="M 652.3544921875 383 L 652.3544921875 435" stroke-miterlimit="10"/></g><g transform="translate(-238,-110) scale(1,1)"><g><path fill="none" stroke="none"/><text fill="#000000" stroke="none" font-family="Arial" font-size="13px" font-style="normal" font-weight="bold" text-decoration="none" x="595.075927734375" y="377.5">Program</text></g></g><g transform="translate(-238,-110) scale(1,1)"><g><path fill="none" stroke="none"/><text fill="#000000" stroke="none" font-family="Arial" font-size="13px" font-style="normal" font-weight="normal" text-decoration="none" x="581" y="401"></text></g></g><g transform="translate(-238,-110) scale(1,1)"><g><path fill="none" stroke="none"/><text fill="#000000" stroke="none" font-family="Arial" font-size="13px" font-style="normal" font-weight="normal" text-decoration="none" x="591" y="401">_id</text></g></g><g transform="translate(-238,-110) scale(1,1)"><g><path fill="none" stroke="none"/><text fill="#000000" stroke="none" font-family="Arial" font-size="13px" font-style="normal" font-weight="normal" text-decoration="none" x="657.3544921875" y="401"></text></g></g><g transform="translate(-238,-110) scale(1,1)"><g><path fill="none" stroke="none"/><text fill="#000000" stroke="none" font-family="Arial" font-size="13px" font-style="normal" font-weight="normal" text-decoration="none" x="581" y="400.5"></text></g></g><g transform="translate(-238,-110) scale(1,1)"><g><path fill="none" stroke="none"/><text fill="#000000" stroke="none" font-family="Arial" font-size="13px" font-style="normal" font-weight="normal" text-decoration="none" x="581" y="416"></text></g></g><g transform="translate(-238,-110) scale(1,1)"><g><path fill="none" stroke="none"/><text fill="#000000" stroke="none" font-family="Arial" font-size="13px" font-style="normal" font-weight="normal" text-decoration="none" x="591" y="416">name</text></g></g><g transform="translate(-238,-110) scale(1,1)"><g><path fill="none" stroke="none"/><text fill="#000000" stroke="none" font-family="Arial" font-size="13px" font-style="normal" font-weight="normal" text-decoration="none" x="657.3544921875" y="416"></text></g></g><g transform="translate(-238,-110) scale(1,1)"><g><path fill="none" stroke="none"/><text fill="#000000" stroke="none" font-family="Arial" font-size="13px" font-style="normal" font-weight="normal" text-decoration="none" x="581" y="415.5"></text></g></g><g transform="translate(-238,-110) scale(1,1)"><g><path fill="none" stroke="none"/><text fill="#000000" stroke="none" font-family="Arial" font-size="13px" font-style="normal" font-weight="normal" text-decoration="none" x="581" y="431"></text></g></g><g transform="translate(-238,-110) scale(1,1)"><g><path fill="none" stroke="none"/><text fill="#000000" stroke="none" font-family="Arial" font-size="13px" font-style="normal" font-weight="normal" text-decoration="none" x="591" y="431">objective</text></g></g><g transform="translate(-238,-110) scale(1,1)"><g><path fill="none" stroke="none"/><text fill="#000000" stroke="none" font-family="Arial" font-size="13px" font-style="normal" font-weight="normal" text-decoration="none" x="657.3544921875" y="431"></text></g></g><g transform="translate(-238,-110) scale(1,1)"><g><path fill="none" stroke="none"/><text fill="#000000" stroke="none" font-family="Arial" font-size="13px" font-style="normal" font-weight="normal" text-decoration="none" x="581" y="430.5"></text></g></g><g transform="translate(-238,-110) scale(1,1)"><rect fill="#C0C0C0" stroke="none" x="255" y="351" width="101.24267578125" height="105" opacity="0.2"/></g><g transform="translate(-238,-110) scale(1,1)"><rect fill="#ffffff" stroke="none" x="248" y="344" width="101.24267578125" height="105"/></g><g transform="translate(-238,-110) scale(1,1)"><path fill="none" stroke="#000000" d="M 248 344 L 349.24267578125 344 L 349.24267578125 449 L 248 449 L 248 344 Z Z" stroke-miterlimit="10"/></g><g transform="translate(-238,-110) scale(1,1)"><path fill="none" stroke="#000000" d="M 248 367 L 349.24267578125 367" stroke-miterlimit="10"/></g><g transform="translate(-238,-110) scale(1,1)"><path fill="none" stroke="#000000" d="M 258 367 L 258 449" stroke-miterlimit="10"/></g><g transform="translate(-238,-110) scale(1,1)"><path fill="none" stroke="#000000" d="M 340.24267578125 367 L 340.24267578125 449" stroke-miterlimit="10"/></g><g transform="translate(-238,-110) scale(1,1)"><g><path fill="none" stroke="none"/><text fill="#000000" stroke="none" font-family="Arial" font-size="13px" font-style="normal" font-weight="bold" text-decoration="none" x="284.897705078125" y="361.5">User</text></g></g><g transform="translate(-238,-110) scale(1,1)"><g><path fill="none" stroke="none"/><text fill="#000000" stroke="none" font-family="Arial" font-size="13px" font-style="normal" font-weight="normal" text-decoration="none" x="253" y="385"></text></g></g><g transform="translate(-238,-110) scale(1,1)"><g><path fill="none" stroke="none"/><text fill="#000000" stroke="none" font-family="Arial" font-size="13px" font-style="normal" font-weight="normal" text-decoration="none" x="263" y="385">_id</text></g></g><g transform="translate(-238,-110) scale(1,1)"><g><path fill="none" stroke="none"/><text fill="#000000" stroke="none" font-family="Arial" font-size="13px" font-style="normal" font-weight="normal" text-decoration="none" x="345.24267578125" y="385"></text></g></g><g transform="translate(-238,-110) scale(1,1)"><g><path fill="none" stroke="none"/><text fill="#000000" stroke="none" font-family="Arial" font-size="13px" font-style="normal" font-weight="normal" text-decoration="none" x="253" y="384.5"></text></g></g><g transform="translate(-238,-110) scale(1,1)"><g><path fill="none" stroke="none"/><text fill="#000000" stroke="none" font-family="Arial" font-size="13px" font-style="normal" font-weight="normal" text-decoration="none" x="253" y="400"></text></g></g><g transform="translate(-238,-110) scale(1,1)"><g><path fill="none" stroke="none"/><text fill="#000000" stroke="none" font-family="Arial" font-size="13px" font-style="normal" font-weight="normal" text-decoration="none" x="263" y="400">name</text></g></g><g transform="translate(-238,-110) scale(1,1)"><g><path fill="none" stroke="none"/><text fill="#000000" stroke="none" font-family="Arial" font-size="13px" font-style="normal" font-weight="normal" text-decoration="none" x="345.24267578125" y="400"></text></g></g><g transform="translate(-238,-110) scale(1,1)"><g><path fill="none" stroke="none"/><text fill="#000000" stroke="none" font-family="Arial" font-size="13px" font-style="normal" font-weight="normal" text-decoration="none" x="253" y="399.5"></text></g></g><g transform="translate(-238,-110) scale(1,1)"><g><path fill="none" stroke="none"/><text fill="#000000" stroke="none" font-family="Arial" font-size="13px" font-style="normal" font-weight="normal" text-decoration="none" x="253" y="415"></text></g></g><g transform="translate(-238,-110) scale(1,1)"><g><path fill="none" stroke="none"/><text fill="#000000" stroke="none" font-family="Arial" font-size="13px" font-style="normal" font-weight="normal" text-decoration="none" x="263" y="415">email</text></g></g><g transform="translate(-238,-110) scale(1,1)"><g><path fill="none" stroke="none"/><text fill="#000000" stroke="none" font-family="Arial" font-size="13px" font-style="normal" font-weight="normal" text-decoration="none" x="345.24267578125" y="415"></text></g></g><g transform="translate(-238,-110) scale(1,1)"><g><path fill="none" stroke="none"/><text fill="#000000" stroke="none" font-family="Arial" font-size="13px" font-style="normal" font-weight="normal" text-decoration="none" x="253" y="414.5"></text></g></g><g transform="translate(-238,-110) scale(1,1)"><g><path fill="none" stroke="none"/><text fill="#000000" stroke="none" font-family="Arial" font-size="13px" font-style="normal" font-weight="normal" text-decoration="none" x="253" y="430"></text></g></g><g transform="translate(-238,-110) scale(1,1)"><g><path fill="none" stroke="none"/><text fill="#000000" stroke="none" font-family="Arial" font-size="13px" font-style="normal" font-weight="normal" text-decoration="none" x="263" y="430">password</text></g></g><g transform="translate(-238,-110) scale(1,1)"><g><path fill="none" stroke="none"/><text fill="#000000" stroke="none" font-family="Arial" font-size="13px" font-style="normal" font-weight="normal" text-decoration="none" x="345.24267578125" y="430"></text></g></g><g transform="translate(-238,-110) scale(1,1)"><g><path fill="none" stroke="none"/><text fill="#000000" stroke="none" font-family="Arial" font-size="13px" font-style="normal" font-weight="normal" text-decoration="none" x="253" y="429.5"></text></g></g><g transform="translate(-238,-110) scale(1,1)"><g><path fill="none" stroke="none"/><text fill="#000000" stroke="none" font-family="Arial" font-size="13px" font-style="normal" font-weight="normal" text-decoration="none" x="253" y="445"></text></g></g><g transform="translate(-238,-110) scale(1,1)"><g><path fill="none" stroke="none"/><text fill="#000000" stroke="none" font-family="Arial" font-size="13px" font-style="normal" font-weight="normal" text-decoration="none" x="263" y="445">objectives[]</text></g></g><g transform="translate(-238,-110) scale(1,1)"><g><path fill="none" stroke="none"/><text fill="#000000" stroke="none" font-family="Arial" font-size="13px" font-style="normal" font-weight="normal" text-decoration="none" x="345.24267578125" y="445"></text></g></g><g transform="translate(-238,-110) scale(1,1)"><g><path fill="none" stroke="none"/><text fill="#000000" stroke="none" font-family="Arial" font-size="13px" font-style="normal" font-weight="normal" text-decoration="none" x="253" y="444.5"></text></g></g><g transform="translate(-238,-110) scale(1,1)"><path fill="none" stroke="#000000" d="M 349 376 L 576 376" stroke-miterlimit="10"/></g><g transform="translate(-238,-110) scale(1,1)"><path fill="none" stroke="#000000" d="M 562 376 L 576 383" stroke-miterlimit="10"/></g><g transform="translate(-238,-110) scale(1,1)"><path fill="none" stroke="#000000" d="M 562 376 L 576 369" stroke-miterlimit="10"/></g><g transform="translate(-238,-110) scale(1,1)"><path fill="#FFFFFF" stroke="none" d="M 547 376 C 547 372.1340064 550.1340064 369 554 369 C 557.8659936 369 561 372.1340064 561 376 C 561 379.8659936 557.8659936 383 554 383 C 550.1340064 383 547 379.8659936 547 376 Z"/></g><g transform="translate(-238,-110) scale(1,1)"><path fill="none" stroke="#000000" d="M 547 376 C 547 372.1340064 550.1340064 369 554 369 C 557.8659936 369 561 372.1340064 561 376 C 561 379.8659936 557.8659936 383 554 383 C 550.1340064 383 547 379.8659936 547 376 Z" stroke-miterlimit="10"/></g><g transform="translate(-238,-110) scale(1,1)"><path fill="none" stroke="#000000" d="M 356 369 L 356 383" stroke-miterlimit="10"/></g><g transform="translate(-238,-110) scale(1,1)"><path fill="none" stroke="#000000" d="M 363 369 L 363 383" stroke-miterlimit="10"/></g><g transform="translate(-238,-110) scale(1,1)"><g><path fill="none" stroke="none"/><text fill="#000000" stroke="none" font-family="Arial" font-size="13px" font-style="normal" font-weight="normal" text-decoration="none" x="434.5" y="367.5">programs</text></g></g><g transform="translate(-238,-110) scale(1,1)"><g><path fill="none" stroke="none"/><text fill="#000000" stroke="none" font-family="Arial" font-size="13px" font-style="normal" font-weight="normal" text-decoration="none" x="373.5" y="367.5"></text></g></g><g transform="translate(-238,-110) scale(1,1)"><g><path fill="none" stroke="none"/><text fill="#000000" stroke="none" font-family="Arial" font-size="13px" font-style="normal" font-weight="normal" text-decoration="none" x="549.5" y="367.5"></text></g></g><g transform="translate(-238,-110) scale(1,1)"><path fill="none" stroke="#000000" d="M 629 360 L 629 225" stroke-miterlimit="10"/></g><g transform="translate(-238,-110) scale(1,1)"><path fill="none" stroke="#000000" d="M 629 239 L 636 225" stroke-miterlimit="10"/></g><g transform="translate(-238,-110) scale(1,1)"><path fill="none" stroke="#000000" d="M 629 239 L 622 225" stroke-miterlimit="10"/></g><g transform="translate(-238,-110) scale(1,1)"><path fill="#FFFFFF" stroke="none" d="M 622 247 C 622 243.1340064 625.1340064 240 629 240 C 632.8659936 240 636 243.1340064 636 247 C 636 250.8659936 632.8659936 254 629 254 C 625.1340064 254 622 250.8659936 622 247 Z"/></g><g transform="translate(-238,-110) scale(1,1)"><path fill="none" stroke="#000000" d="M 622 247 C 622 243.1340064 625.1340064 240 629 240 C 632.8659936 240 636 243.1340064 636 247 C 636 250.8659936 632.8659936 254 629 254 C 625.1340064 254 622 250.8659936 622 247 Z" stroke-miterlimit="10"/></g><g transform="translate(-238,-110) scale(1,1)"><path fill="none" stroke="#000000" d="M 622 353 L 636 353" stroke-miterlimit="10"/></g><g transform="translate(-238,-110) scale(1,1)"><path fill="none" stroke="#000000" d="M 622 346 L 636 346" stroke-miterlimit="10"/></g><g transform="translate(-238,-110) scale(1,1)"><g><path fill="none" stroke="none"/><text fill="#000000" stroke="none" font-family="Arial" font-size="13px" font-style="normal" font-weight="normal" text-decoration="none" x="637.5" y="296.5">workouts</text></g></g><g transform="translate(-238,-110) scale(1,1)"><g><path fill="none" stroke="none"/><text fill="#000000" stroke="none" font-family="Arial" font-size="13px" font-style="normal" font-weight="normal" text-decoration="none" x="613.5" y="340.5"></text></g></g><g transform="translate(-238,-110) scale(1,1)"><g><path fill="none" stroke="none"/><text fill="#000000" stroke="none" font-family="Arial" font-size="13px" font-style="normal" font-weight="normal" text-decoration="none" x="613.5" y="256.5"></text></g></g><g transform="translate(-238,-110) scale(1,1)"><path fill="none" stroke="#000000" d="M 296 344 L 296 192 M 296 192 A 8 8 0 0 1 304 184 L 592 184" stroke-miterlimit="10"/></g><g transform="translate(-238,-110) scale(1,1)"><path fill="none" stroke="#000000" d="M 585 191 L 585 177" stroke-miterlimit="10"/></g><g transform="translate(-238,-110) scale(1,1)"><path fill="none" stroke="#000000" d="M 578 191 L 578 177" stroke-miterlimit="10"/></g><g transform="translate(-238,-110) scale(1,1)"><path fill="none" stroke="#000000" d="M 289 337 L 303 337" stroke-miterlimit="10"/></g><g transform="translate(-238,-110) scale(1,1)"><path fill="none" stroke="#000000" d="M 289 330 L 303 330" stroke-miterlimit="10"/></g><g transform="translate(-238,-110) scale(1,1)"><g><path fill="none" stroke="none"/><text fill="#000000" stroke="none" font-family="Arial" font-size="13px" font-style="normal" font-weight="normal" text-decoration="none" x="275.5" y="175.5">author </text></g></g><g transform="translate(-238,-110) scale(1,1)"><g><path fill="none" stroke="none"/><text fill="#000000" stroke="none" font-family="Arial" font-size="13px" font-style="normal" font-weight="normal" text-decoration="none" x="280.5" y="324.5"></text></g></g><g transform="translate(-238,-110) scale(1,1)"><g><path fill="none" stroke="none"/><text fill="#000000" stroke="none" font-family="Arial" font-size="13px" font-style="normal" font-weight="normal" text-decoration="none" x="565.5" y="175.5"></text></g></g><g transform="translate(-238,-110) scale(1,1)"><g><path fill="none" stroke="none"/><text fill="#000000" stroke="none" font-family="Arial" font-size="13px" font-style="normal" font-weight="normal" text-decoration="none" x="645" y="250">few</text></g></g><g transform="translate(-238,-110) scale(1,1)"><g><path fill="none" stroke="none"/><text fill="#000000" stroke="none" font-family="Arial" font-size="13px" font-style="normal" font-weight="normal" text-decoration="none" x="525" y="410">zillion</text></g></g></g></svg>